<svg version="1.1" xmlns="http://www.w3.org/2000/svg" style="display: none;">
    <symbol id="search-icon" viewBox="0 0 100 100">
        <path d="M99.337,89.242L68.053,57.956c4.062-6.058,6.245-13.179,6.245-20.636c0-9.923-3.864-19.252-10.881-26.269
        C56.4,4.035,47.072,0.171,37.149,0.171S17.897,4.035,10.88,11.051C3.864,18.068,0,27.397,0,37.32c0,9.923,3.864,19.25,10.881,26.268
        S27.226,74.469,37.15,74.469c7.541,0,14.737-2.234,20.838-6.385l31.255,31.253c1.055,1.056,2.995,0.826,4.332-0.511l5.252-5.252
        C100.164,92.236,100.393,90.297,99.337,89.242z M37.149,64.405c-14.936,0-27.086-12.15-27.086-27.085s12.151-27.086,27.086-27.086
        S64.234,22.385,64.234,37.32S52.084,64.405,37.149,64.405z"/>
    </symbol>

    <symbol id="menu-icon" viewBox="0 0 100 100">
        <path d="M0,100.869"/>
        <rect width="95.604" height="21.248"/>
        <rect y="39.363" width="95.604" height="21.257"/>
        <rect y="78.743" width="95.604" height="21.257"/>
    </symbol>
</svg>
